<svg width="14" height="14" viewBox="0 0 14 14" fill="none" xmlns="http://www.w3.org/2000/svg">
<path d="M7 0C3.14024 0 0 3.14024 0 7C0 10.8598 3.14024 14 7 14C10.8598 14 14 10.8598 14 7C14 3.14024 10.8598 0 7 0ZM10.643 4.65399L6.11995 10.0386C6.07034 10.0977 6.0086 10.1454 5.93892 10.1786C5.86925 10.2118 5.79326 10.2295 5.71611 10.2308H5.70702C5.63155 10.2307 5.55692 10.2148 5.48799 10.1841C5.41905 10.1534 5.35735 10.1085 5.30688 10.0524L3.36841 7.89856C3.31918 7.84634 3.28089 7.78481 3.25578 7.71759C3.23067 7.65036 3.21925 7.57879 3.22219 7.50709C3.22513 7.43539 3.24238 7.36499 3.27291 7.30005C3.30345 7.23511 3.34666 7.17692 3.4 7.12892C3.45335 7.08091 3.51575 7.04406 3.58354 7.02051C3.65133 6.99697 3.72315 6.98721 3.79476 6.99182C3.86638 6.99643 3.93635 7.0153 4.00057 7.04734C4.06478 7.07937 4.12195 7.12392 4.1687 7.17836L5.69288 8.87183L9.81851 3.96139C9.91105 3.8544 10.042 3.78812 10.183 3.77689C10.324 3.76565 10.4638 3.81036 10.5721 3.90134C10.6804 3.99233 10.7486 4.12229 10.7619 4.26313C10.7751 4.40397 10.7324 4.54437 10.643 4.65399Z" fill="#2FBE34"/>
</svg>
