<svg width="14" height="14" viewBox="0 0 14 14" fill="none" xmlns="http://www.w3.org/2000/svg">
<path d="M7 0C3.13542 0 0 3.13542 0 7C0 10.8646 3.13542 14 7 14C10.8646 14 14 10.8646 14 7C14 3.13542 10.8646 0 7 0ZM6.78125 11.0833C6.63703 11.0833 6.49606 11.0406 6.37615 10.9604C6.25624 10.8803 6.16278 10.7664 6.10759 10.6332C6.0524 10.5 6.03796 10.3534 6.06609 10.2119C6.09423 10.0705 6.16368 9.94054 6.26565 9.83857C6.36763 9.73659 6.49755 9.66715 6.639 9.63901C6.78044 9.61088 6.92705 9.62532 7.06029 9.6805C7.19353 9.73569 7.30741 9.82915 7.38753 9.94906C7.46765 10.069 7.51042 10.21 7.51042 10.3542C7.51042 10.5476 7.43359 10.733 7.29685 10.8698C7.1601 11.0065 6.97464 11.0833 6.78125 11.0833ZM8.00042 7.36458C7.40943 7.76125 7.32812 8.12474 7.32812 8.45833C7.32812 8.5937 7.27435 8.72353 7.17863 8.81925C7.08291 8.91497 6.95308 8.96875 6.81771 8.96875C6.68234 8.96875 6.55251 8.91497 6.45679 8.81925C6.36107 8.72353 6.30729 8.5937 6.30729 8.45833C6.30729 7.65953 6.67479 7.02443 7.43094 6.51656C8.13385 6.04479 8.53125 5.74583 8.53125 5.08849C8.53125 4.64151 8.27604 4.30208 7.74776 4.05089C7.62344 3.99182 7.34672 3.93422 7.0062 3.93823C6.57891 3.9437 6.24714 4.04578 5.99156 4.25141C5.50958 4.63932 5.46875 5.06151 5.46875 5.06771C5.46552 5.13474 5.44912 5.20047 5.42048 5.26116C5.39184 5.32185 5.35153 5.37631 5.30185 5.42142C5.25217 5.46653 5.19409 5.50141 5.13093 5.52408C5.06776 5.54675 5.00075 5.55675 4.93372 5.55352C4.86669 5.55028 4.80096 5.53388 4.74027 5.50524C4.67958 5.47661 4.62512 5.4363 4.58001 5.38662C4.5349 5.33694 4.50002 5.27885 4.47735 5.21569C4.45469 5.15253 4.44468 5.08552 4.44792 5.01849C4.45193 4.9299 4.51354 4.13182 5.35099 3.45807C5.78521 3.1088 6.33755 2.92724 6.99161 2.91922C7.45464 2.91375 7.88958 2.99214 8.18453 3.13141C9.06719 3.54885 9.55208 4.24484 9.55208 5.08849C9.55208 6.32188 8.72776 6.87568 8.00042 7.36458Z" fill="#FF922E"/>
</svg>
